#!OML:ASF Y:\EmotionMaleHayes\Project 1\Capture day 1\Session 1\Male1.ASF
:FULLY-SPECIFIED
:DEGREES
439
root -19.5158 17.1268 -0.191902 95.3339 87.2668 98.1419
lowerback 4.15781 1.08317 -9.40139
upperback 3.27803 1.27549 -1.42705
thorax 0.918355 0.540177 3.74177
lowerneck -24.143 3.44857 4.72706
upperneck 28.8491 4.34536 -2.60579
head 14.0605 2.15302 -0.991564
rclavicle -4.82053e-015 -4.77083e-015
rhumerus 42.8096 22.1312 -33.7543
rradius 43.4657
rwrist -5.31979
rhand 0.444385 -29.7337
rfingers 7.12502
rthumb 26.0159 -57.9726
lclavicle -4.82053e-015 -4.77083e-015
lhumerus 41.9256 -21.7373 27.3956
lradius 44.2271
lwrist 4.711
lhand -4.53243 -22.7495
lfingers 7.12502
lthumb 21.2426 6.10649
rfemur 1.2413 -3.84328 6.38512
rtibia 8.61255
rfoot -10.716 -8.24088
rtoes 10.3264
lfemur 20.9282 -2.84987 -19.4759
ltibia 9.47289
lfoot -16.9693 11.5441
ltoes -18.3485
440
root -19.447 17.1301 -0.148581 98.3052 87.561 101.082
lowerback 4.16473 1.07647 -9.09029
upperback 3.2308 1.26579 -1.30766
thorax 0.86667 0.540439 3.69269
lowerneck -23.9922 3.32407 4.84634
upperneck 28.3876 4.19053 -2.90992
head 13.8349 2.05074 -1.16566
rclavicle 2.48481e-015 -4.05521e-014
rhumerus 42.8916 22.1332 -33.6973
rradius 43.4863
rwrist -5.11544
rhand 0.319534 -29.9034
rfingers 7.12502
rthumb 25.8964 -58.1598
lclavicle 2.48481e-015 -4.05521e-014
lhumerus 42.0668 -21.7799 27.1894
lradius 44.2194
lwrist 4.70632
lhand -4.87668 -22.6893
lfingers 7.12502
lthumb 20.9119 6.20348
rfemur 1.56651 -4.05793 6.87279
rtibia 8.42955
rfoot -10.6712 -8.09452
rtoes 9.73167
lfemur 21.0179 -3.06265 -18.959
ltibia 9.67623
lfoot -16.935 11.331
ltoes -17.6301
441
root -19.3776 17.1325 -0.11013 101.703 87.6174 104.443
lowerback 4.23133 1.07152 -8.91585
upperback 3.14085 1.24739 -1.26879
thorax 0.738597 0.539928 3.63471
lowerneck -24.1973 3.34584 4.46427
upperneck 28.6194 4.09191 -2.06404
head 13.9397 2.088 -0.778488
rclavicle 3.77691e-015 -2.06736e-014
rhumerus 42.9296 22.0849 -33.8183
rradius 43.3812
rwrist -4.86614
rhand 0.327351 -29.6324
rfingers 7.12502
rthumb 25.9039 -57.8877
lclavicle 3.77691e-015 -2.06736e-014
lhumerus 42.1332 -21.833 27.0618
lradius 44.2894
lwrist 4.67005
lhand -5.08835 -22.6175
lfingers 7.12502
lthumb 20.7085 6.29764
rfemur 1.90274 -4.4893 7.01043
rtibia 8.25785
rfoot -10.5396 -7.79814
rtoes 9.07417
lfemur 21.0518 -3.19901 -18.7281
ltibia 9.94883
lfoot -16.7314 11.2319
ltoes -18.1286
442
root -19.3056 17.1328 -0.0749928 105.789 87.3371 108.492
lowerback 3.63249 0.971955 -9.09173
upperback 3.50129 1.20821 -1.25371
thorax 1.45455 0.480187 3.76324
lowerneck -24.0706 3.2645 4.61875
upperneck 27.7325 4.06492 -2.70677
head 13.556 1.98707 -1.06997
rclavicle 1.29707e-014 4.37326e-014
rhumerus 43.5405 21.5367 -33.7818
rradius 43.1175
rwrist -4.66727
rhand 0.341744 -29.1449
rfingers 7.12502
rthumb 25.9177 -57.3982
lclavicle 1.29707e-014 4.37326e-014
lhumerus 42.3771 -21.2523 27.1053
lradius 44.2812
lwrist 4.64805
lhand -4.96743 -22.6458
lfingers 7.12502
lthumb 20.8247 6.25666
rfemur 2.30723 -4.94434 6.74259
rtibia 8.09203
rfoot -10.4153 -7.56227
rtoes 8.70277
lfemur 21.0558 -3.26373 -18.8264
ltibia 10.2533
lfoot -16.3833 11.1088
ltoes -19.344
443
root -19.2355 17.1313 -0.0343297 112.236 87.4705 114.942
lowerback 3.93369 0.981002 -8.7756
upperback 3.25626 1.17046 -1.18935
thorax 1.03539 0.487473 3.64821
lowerneck -24.0011 3.11781 4.84403
upperneck 27.7815 3.89557 -3.0794
head 13.5694 1.88779 -1.28813
rclavicle -1.43125e-014 2.38542e-015
rhumerus 43.3508 21.583 -34.0005
rradius 42.9811
rwrist -4.55183
rhand 0.581295 -28.9263
rfingers 7.12502
rthumb 26.147 -57.1459
lclavicle -1.43125e-014 2.38542e-015
lhumerus 42.3684 -21.5559 27.1488
lradius 44.3301
lwrist 4.84691
lhand -4.88647 -22.6466
lfingers 7.12502
lthumb 20.9025 6.24723
rfemur 2.75989 -5.05797 7.11934
rtibia 7.84923
rfoot -10.4199 -7.60505
rtoes 8.44851
lfemur 21.1625 -3.34108 -18.2804
ltibia 10.4938
lfoot -16.1611 10.9662
ltoes -19.9863
444
root -19.1616 17.1285 0.00727687 120.49 87.6101 123.151
lowerback 4.11358 0.883507 -8.38428
upperback 3.05017 1.01098 -1.0686
thorax 0.740234 0.426571 3.55698
lowerneck -24.1215 3.09767 4.70958
upperneck 27.9775 3.90534 -3.01317
head 13.6724 1.88817 -1.23671
rclavicle -2.18663e-015 3.97569e-015
rhumerus 43.6411 21.8381 -33.8529
rradius 42.8352
rwrist -4.64849
rhand 0.975914 -29.1538
rfingers 7.12502
rthumb 26.5248 -57.3168
lclavicle -2.18663e-015 3.97569e-015
lhumerus 42.1324 -21.6203 27.3297
lradius 44.3318
lwrist 4.91687
lhand -5.17717 -22.582
lfingers 7.12502
lthumb 20.6232 6.34243
rfemur 3.24064 -5.22391 7.55075
rtibia 7.53214
rfoot -10.5151 -7.61472
rtoes 8.38039
lfemur 21.1984 -3.59438 -17.7485
ltibia 10.7434
lfoot -14.8995 10.514
ltoes -14.8049
445
root -19.0913 17.1288 0.0380148 118.684 87.8575 121.457
lowerback 4.33522 1.01378 -7.9071
upperback 3.02952 1.17613 -1.14264
thorax 0.581039 0.523243 3.20384
lowerneck -24.431 3.02606 4.6423
upperneck 28.083 3.68706 -2.64362
head 13.7604 1.83526 -1.11711
rclavicle -5.61567e-015 -3.18055e-014
rhumerus 43.0863 21.6458 -33.9265
rradius 43.3198
rwrist -4.73984
rhand 0.928802 -29.4615
rfingers 7.12502
rthumb 26.4797 -57.6314
lclavicle -5.61567e-015 -3.18055e-014
lhumerus 42.412 -21.6013 27.2114
lradius 44.3164
lwrist 4.93599
lhand -5.65232 -22.4481
lfingers 7.12502
lthumb 20.1666 6.52512
rfemur 3.55991 -5.40053 7.81768
rtibia 7.63052
rfoot -10.6588 -7.16581
rtoes 8.14732
lfemur 21.5898 -3.57749 -17.5049
ltibia 10.6714
lfoot -14.2447 10.5897
ltoes -15.7565
446
root -19.0165 17.1257 0.076714 122.126 87.9741 124.953
lowerback 4.22604 0.983495 -7.73169
upperback 3.07781 1.15196 -1.00982
thorax 0.694252 0.506123 3.24683
lowerneck -24.3679 3.05813 4.55081
upperneck 27.9125 3.73636 -2.5661
head 13.6732 1.85573 -1.06195
rclavicle 1.15295e-014 -1.03368e-014
rhumerus 43.1881 21.5789 -33.9398
rradius 43.3811
rwrist -4.81743
rhand 0.576115 -29.6236
rfingers 7.12502
rthumb 26.1421 -57.8439
lclavicle 1.15295e-014 -1.03368e-014
lhumerus 42.4145 -21.4336 27.3245
lradius 44.2873
lwrist 5.12734
lhand -5.90645 -22.3033
lfingers 7.12502
lthumb 19.9223 6.69549
rfemur 3.94742 -5.26291 8.20812
rtibia 7.5684
rfoot -10.9494 -7.20191
rtoes 8.69136
lfemur 21.9042 -3.49535 -17.0703
ltibia 10.7505
lfoot -14.1677 10.2955
ltoes -18.1782
447
root -18.9474 17.124 0.116797 124.294 87.9685 127.184
lowerback 4.2508 0.981181 -7.7227
upperback 3.13254 1.14924 -0.905867
thorax 0.735762 0.500979 3.34972
lowerneck -24.4907 3.0337 4.54879
upperneck 27.7902 3.69963 -2.61871
head 13.6464 1.82737 -1.08864
rclavicle 9.24349e-015 3.97569e-015
rhumerus 43.3928 21.4065 -34.0049
rradius 43.2441
rwrist -4.84301
rhand 0.318786 -29.6643
rfingers 7.12502
rthumb 25.8957 -57.9208
lclavicle 9.24349e-015 3.97569e-015
lhumerus 42.5011 -21.2253 27.3814
lradius 44.2877
lwrist 5.39024
lhand -5.90613 -22.179
lfingers 7.12502
lthumb 19.9226 6.81983
rfemur 4.38124 -5.20772 8.41026
rtibia 7.38243
rfoot -11.1107 -7.19174
rtoes 9.64175
lfemur 22.0808 -3.54864 -16.8364
ltibia 11.0795
lfoot -14.4068 9.97843
ltoes -16.6415
